<svg height="48" viewBox="0 0 48 48" width="48" xmlns="http://www.w3.org/2000/svg"><g fill="none" fill-rule="evenodd" stroke-linecap="round" stroke-linejoin="round"><path d="m0 0h48v48h-48z" fill="#fff" fill-opacity=".01"/><g stroke="#000" stroke-width="4"><circle cx="24" cy="24" r="20"/><g transform="translate(6 6.5)"><path d="m24.0930233 0-6.0232559 4.35897436v4.35897436l7.7441861 6.10256408 4.3023256-1.7435897 2.5813953-6.974359"/><path d="m12.0465116 0 6.0232558 4.35897436v4.35897436l-7.744186 6.10256408-4.30232559-1.7435897-2.58139534-6.974359"/><path d="m0 15.6923077 6.02325581-2.6153846 4.30232559 1.7435897 2.5813953 9.5897436-2.5813953 3.4871795h-7.74418605"/><path d="m10.3255814 34v-6.1025641l2.5813953-3.4871795h10.3255814l2.5813954 3.4871795v6.1025641"/><path d="m33.5581395 27.8974359h-7.744186l-2.5813954-3.4871795 2.5813954-9.5897436 4.3023256-1.7435897 6.8837209 3.4871795"/></g></g></g></svg>